# xmcd
# 
# Track frame offsets:
#     150
#     25495
#     50312
#     71390
#     96950
#     126475
#     145975
#     176212
#     205247
#     228087
# 
# Disc length: 3381
# 
# Revision: 6
# Processed by: cddbd v1.5.2PL0 Copyright (c) Steve Scherf et al.
# Submitted via: fre:ac v1.0.31
# 
DISCID=900d330a
DTITLE=中島 みゆき - Yoru wo Yuke
DYEAR=1990
DGENRE=J-POP
TTITLE0=01-夜を往け
TTITLE1=02-ふたつの炎
TTITLE2=03-3分後に捨ててもいい
TTITLE3=04-あした
TTITLE4=05-新曾根崎心中
TTITLE5=06-君の昔を
TTITLE6=07-遠雷
TTITLE7=08-ふたりは
TTITLE8=09-北の国の習い
TTITLE9=10-with
EXTD=YEAR: 1990\nアルバム名：夜を往け
EXTT0=
EXTT1=
EXTT2=
EXTT3=
EXTT4=
EXTT5=
EXTT6=
EXTT7=
EXTT8=
EXTT9=
PLAYORDER=
